# xmcd
# 
# Track frame offsets:
#	150
#	23315
#	48385
#	66000
#	84377
#	106125
#	127270
#	145342
#	163302
#	182120
#	200080
#	220135
#
# Disc length: 3115 seconds
#
# Revision: 1
# Processed by: cddbd v1.4PL0 Copyright (c) Steve Scherf et al.
# Submitted via: Audio-CD-Archiv 2.10.446
#
DISCID=ac0c290c
DTITLE=Lindsay Hammond - The Raven
DYEAR=1900
DGENRE=country
TTITLE0=Hillbilly Babylon
TTITLE1=Back into heaven
TTITLE2=Shattered
TTITLE3=Hometown
TTITLE4=I believe in you
TTITLE5=Red dust tails
TTITLE6=The Raven
TTITLE7=Sadder than a man should be
TTITLE8=Break these Chains
TTITLE9=Two strong hands
TTITLE10=Joey
TTITLE11=The Singer
EXTD=
EXTT0=
EXTT1=
EXTT2=
EXTT3=
EXTT4=
EXTT5=
EXTT6=
EXTT7=
EXTT8=
EXTT9=
EXTT10=
EXTT11=
PLAYORDER=
